<svg xmlns="http://www.w3.org/2000/svg" version="1.1" xmlns:xlink="http://www.w3.org/1999/xlink" xmlns:svgjs="http://svgjs.dev/svgjs" viewBox="0 0 6.311725509214098 3.1653045456798927"><g transform="matrix(0.8003183027350511,0,0,0.8003183027350511,3.1520552102045194,1.3231815795693105)"><g transform="matrix(1,0,0,1,0,0)" clip-path="url(#SvgjsClipPath1281)"><g clip-path="url(#SvgjsClipPath1279af150b3c-60c3-489f-b924-3bf46f433c09)"><path d=" M -2.7562289647381677 0.41759803836123677 L -1.6665761450861372 -0.6718180546299961 L -1.6665761450861372 -0.537830764618471 L -2.622241674726643 0.41759803836123677 L -1.9177431321925469 1.1220965808953325 L -1.9847367771983095 1.1888534992402973 Z" fill="#773bfe" transform="matrix(1,0,0,1,0,0)" fill-rule="nonzero"></path></g><g clip-path="url(#SvgjsClipPath1279af150b3c-60c3-489f-b924-3bf46f433c09)"><path d=" M -0.22088642759429433 0.41759803836123677 L -0.9923786151341529 1.1888534992402973 L -1.0591355334791175 1.1220965808953325 L -0.35487371760581965 0.41759803836123677 L -1.3105392472463249 -0.537830764618471 L -1.3105392472463249 -0.6718180546299961 Z" fill="#773bfe" transform="matrix(1,0,0,1,0,0)" fill-rule="nonzero"></path></g><g clip-path="url(#SvgjsClipPath1279af150b3c-60c3-489f-b924-3bf46f433c09)"><path d=" M -1.2201096628215857 0.9414741387066516 L -0.6896052159738342 0.4109696918589001 L -1.488557696166231 -0.387982788333497 L -2.2875101763586283 0.4109696918589001 L -1.7570057295108765 0.9414741387066516 Z" fill="#ad9df7" transform="matrix(1,0,0,1,0,0)" fill-rule="nonzero"></path></g><g clip-path="url(#SvgjsClipPath1279af150b3c-60c3-489f-b924-3bf46f433c09)"><path d=" M -1.951358318025827 0.9421843186890448 L -1.025757074306635 0.9421843186890448 L -1.025757074306635 0.7452277369053188 L -1.488557696166231 0.3681221662545078 L -1.951358318025827 0.7452277369053188 Z" fill="#773bfe" transform="matrix(1,0,0,1,0,0)" fill-rule="nonzero"></path></g><g clip-path="url(#SvgjsClipPath1279af150b3c-60c3-489f-b924-3bf46f433c09)"><path d=" M -1.6069210265651048 0.5901717740827945 L -1.5105732756204215 0.5901717740827945 L -1.5105732756204215 0.6865195250274778 L -1.6069210265651048 0.6865195250274778 Z" fill="#ffffff" transform="matrix(1,0,0,1,0,0)" fill-rule="nonzero"></path></g><g clip-path="url(#SvgjsClipPath1279af150b3c-60c3-489f-b924-3bf46f433c09)"><path d=" M -1.4665421167120407 0.5901717740827945 L -1.3701943657673574 0.5901717740827945 L -1.3701943657673574 0.6865195250274778 L -1.4665421167120407 0.6865195250274778 Z" fill="#ffffff" transform="matrix(1,0,0,1,0,0)" fill-rule="nonzero"></path></g><g clip-path="url(#SvgjsClipPath1279af150b3c-60c3-489f-b924-3bf46f433c09)"><path d=" M -1.6069210265651048 0.7305506839358589 L -1.5105732756204215 0.7305506839358589 L -1.5105732756204215 0.8268984348805422 L -1.6069210265651048 0.8268984348805422 Z" fill="#ffffff" transform="matrix(1,0,0,1,0,0)" fill-rule="nonzero"></path></g><g clip-path="url(#SvgjsClipPath1279af150b3c-60c3-489f-b924-3bf46f433c09)"><path d=" M -1.4665421167120407 0.7305506839358589 L -1.3701943657673574 0.7305506839358589 L -1.3701943657673574 0.8268984348805422 L -1.4665421167120407 0.8268984348805422 Z" fill="#ffffff" transform="matrix(1,0,0,1,0,0)" fill-rule="nonzero"></path></g><g clip-path="url(#SvgjsClipPath1279af150b3c-60c3-489f-b924-3bf46f433c09)"><path d=" M -0.9836197286846362 1.5119853912292223 L -1.9934956636478263 1.5119853912292223 L -1.9934956636478263 0.7253426973983081 L -1.488557696166231 0.31367503427102594 L -0.9836197286846362 0.7251059707375105 L -0.9836197286846362 1.5119853912292223 Z M -1.9089842457430304 1.427710699985224 L -1.0678944199286342 1.427710699985224 L -1.0678944199286342 0.7653495030731277 L -1.488557696166231 0.4228060248987875 L -1.9089842457430304 0.7653495030731277 L -1.9089842457430304 1.427710699985224 Z" fill="#773bfe" transform="matrix(1,0,0,1,0,0)" fill-rule="nonzero"></path></g><g clip-path="url(#SvgjsClipPath1279af150b3c-60c3-489f-b924-3bf46f433c09)"><path d=" M -1.5359030283257804 -0.7828428585441395 L -1.4412123640066816 -0.7828428585441395 L -1.4412123640066816 0.4062351586429451 L -1.5359030283257804 0.4062351586429451 Z" fill="#773bfe" transform="matrix(1,0,0,1,0,0)" fill-rule="nonzero"></path></g><g clip-path="url(#SvgjsClipPath1279af150b3c-60c3-489f-b924-3bf46f433c09)"><path d=" M -1.7702624225155503 1.4698480456072238 L -1.8422273273980654 1.4698480456072238 L -1.806244874956808 1.1666011931253089 Z" fill="#773bfe" transform="matrix(1,0,0,1,0,0)" fill-rule="nonzero"></path></g><g clip-path="url(#SvgjsClipPath1279af150b3c-60c3-489f-b924-3bf46f433c09)"><path d=" M -1.6346180458784414 1.4698480456072238 L -1.691669171130698 1.4698480456072238 L -1.6632619718349684 1.2288603049151166 Z" fill="#773bfe" transform="matrix(1,0,0,1,0,0)" fill-rule="nonzero"></path></g><g clip-path="url(#SvgjsClipPath1279af150b3c-60c3-489f-b924-3bf46f433c09)"><path d=" M -1.2345499891302483 1.4698480456072238 L -1.162585084247733 1.4698480456072238 L -1.1985675366889907 1.1666011931253089 Z" fill="#773bfe" transform="matrix(1,0,0,1,0,0)" fill-rule="nonzero"></path></g><g clip-path="url(#SvgjsClipPath1279af150b3c-60c3-489f-b924-3bf46f433c09)"><path d=" M -1.3701943657673574 1.4698480456072238 L -1.3131432405151005 1.4698480456072238 L -1.34155043981083 1.2288603049151166 Z" fill="#773bfe" transform="matrix(1,0,0,1,0,0)" fill-rule="nonzero"></path></g><g clip-path="url(#SvgjsClipPath1279af150b3c-60c3-489f-b924-3bf46f433c09)"><path d=" M -1.4525752437249735 1.4698480456072238 L -1.552237167920825 1.4698480456072238 L -1.5022878424925001 1.0977137348331647 Z" fill="#773bfe" transform="matrix(1,0,0,1,0,0)" fill-rule="nonzero"></path></g><g clip-path="url(#SvgjsClipPath1279af150b3c-60c3-489f-b924-3bf46f433c09)"><path d=" M -1.3933935785255367 -0.04165168358639293 L -1.5837218138069253 -0.04165168358639293 L -1.5837218138069253 -0.7684025322354769 C -1.5837218138069253 -0.8209558509325768 -1.541111014863331 -0.8635666498761714 -1.4885576961662308 -0.8635666498761714 L -1.4885576961662308 -0.8635666498761714 C -1.4360043774691307 -0.8635666498761714 -1.3933935785255365 -0.8209558509325768 -1.3933935785255365 -0.7684025322354769 L -1.3933935785255365 -0.04165168358639293 Z" fill="#773bfe" transform="matrix(1,0,0,1,0,0)" fill-rule="nonzero"></path></g></g><g><path d=" M 0.3899100775818345 0.0867421097704082 C 0.3899100775818345 0.05238879897024651 0.42683988669200823 0.03263564526015361 0.42683988669200823 0.014600157090068788 C 0.42683988669200823 0.006870662160032404 0.4199692245319759 0 0.4079455657519193 0 L 0.25679099823120816 0 C 0.2447673394511516 0 0.23789667729111927 0.006870662160032404 0.23789667729111927 0.014600157090068788 C 0.23789667729111927 0.03263564526015361 0.27482648640129304 0.05238879897024651 0.27482648640129304 0.0867421097704082 L 0.27482648640129304 0.547935307262578 C 0.27482648640129304 0.5513706383425941 0.2722499880912809 0.5539471366526063 0.2688146570112647 0.5539471366526063 L 0.1752018850808243 0.5539471366526063 C 0.17176655400080815 0.5539471366526063 0.169190055690796 0.5513706383425941 0.169190055690796 0.547935307262578 L 0.169190055690796 0.0867421097704082 C 0.169190055690796 0.05238879897024651 0.20611986480096978 0.03263564526015361 0.20611986480096978 0.014600157090068788 C 0.20611986480096978 0.006870662160032404 0.19924920264093743 0 0.18722554386088086 0 L 0.03607097634016971 0 C 0.02404731756011314 0 0.017176655400080815 0.006870662160032404 0.017176655400080815 0.014600157090068788 C 0.017176655400080815 0.03263564526015361 0.05410646451025456 0.05238879897024651 0.05410646451025456 0.0867421097704082 L 0.05410646451025456 0.5822886180627397 C 0.05410646451025456 0.6269479221029498 0.0910362736204283 0.6484187413530508 0.13569557766063842 0.6484187413530508 L 0.3048856333514344 0.6484187413530508 C 0.35727443232168093 0.6484187413530508 0.3899100775818345 0.612347765012881 0.3899100775818345 0.5779944542127194 M 0.6510629230659332 0.6484187413530508 C 0.6648042473859979 0.6484187413530508 0.6751102406260463 0.6398304136530104 0.6751102406260463 0.6269479221029498 C 0.6751102406260463 0.6071947683928568 0.6381804315158726 0.5865827819127598 0.6381804315158726 0.568547293742675 L 0.6381804315158726 0.2859913124113456 L 0.8116646510566887 0.6243714237929376 C 0.8193941459867251 0.6398304136530104 0.8254059753767534 0.6484187413530508 0.8485944601668625 0.6484187413530508 L 0.9027009246771172 0.6484187413530508 C 0.9215952456172061 0.6484187413530508 0.9336189043972626 0.6363950825729942 0.9336189043972626 0.6183595944029093 L 0.9336189043972626 0.0867421097704082 C 0.9336189043972626 0.05238879897024651 0.9705487135074363 0.03263564526015361 0.9705487135074363 0.014600157090068788 C 0.9705487135074363 0.006870662160032404 0.9636780513474039 0 0.9516543925673474 0 L 0.8047939888966564 0 C 0.7927703301165999 0 0.7858996679565675 0.006870662160032404 0.7858996679565675 0.014600157090068788 C 0.7858996679565675 0.03263564526015361 0.8228294770667413 0.05238879897024651 0.8228294770667413 0.0867421097704082 L 0.8228294770667413 0.3907689103518386 L 0.6502040902959292 0.0266238158701253 C 0.6450510936759049 0.014600157090068788 0.6390392642858767 0 0.6124154484157514 0 L 0.5093555160152665 0 C 0.4973318572352099 0 0.4904611950751776 0.006870662160032404 0.4904611950751776 0.014600157090068788 C 0.4904611950751776 0.03263564526015361 0.5273910041853513 0.05238879897024651 0.5273910041853513 0.0867421097704082 L 0.5273910041853513 0.5616766315826427 C 0.5273910041853513 0.5960299423828043 0.4904611950751776 0.6157830960928973 0.4904611950751776 0.6338185842629821 C 0.4904611950751776 0.6415480791930185 0.4973318572352099 0.6484187413530508 0.5093555160152665 0.6484187413530508 M 1.1861578417130736 0.0867421097704082 C 1.1861578417130736 0.05238879897024651 1.2230876508232473 0.03263564526015361 1.2230876508232473 0.014600157090068788 C 1.2230876508232473 0.006870662160032404 1.216216988663215 0 1.2041933298831586 0 L 1.0530387623624473 0 C 1.041015103582391 0 1.0341444414223584 0.006870662160032404 1.0341444414223584 0.014600157090068788 C 1.0341444414223584 0.03263564526015361 1.0710742505325321 0.05238879897024651 1.0710742505325321 0.0867421097704082 L 1.0710742505325321 0.5616766315826427 C 1.0710742505325321 0.5960299423828043 1.0341444414223584 0.6157830960928973 1.0341444414223584 0.6338185842629821 C 1.0341444414223584 0.6415480791930185 1.041015103582391 0.6484187413530508 1.0530387623624473 0.6484187413530508 L 1.2041933298831586 0.6484187413530508 C 1.216216988663215 0.6484187413530508 1.2230876508232473 0.6415480791930185 1.2230876508232473 0.6338185842629821 C 1.2230876508232473 0.6157830960928973 1.1861578417130736 0.5960299423828043 1.1861578417130736 0.5616766315826427 M 1.5099891246818669 0.18035488170084862 C 1.5099891246818669 0.18980204217089303 1.5177186196119032 0.19667270433092537 1.5245892817719355 0.19667270433092537 C 1.534895275011984 0.19667270433092537 1.6018842310722992 0.1511545675207112 1.615625555392364 0.14084857428066277 C 1.6224962175523963 0.13569557766063844 1.6250727158624083 0.13140141381061832 1.6250727158624083 0.11851892226055771 L 1.6250727158624083 0.029200314180137465 C 1.6250727158624083 0.008588327700040477 1.6164843881623678 0 1.595872401682271 0 L 1.3055869254209052 0 C 1.2935632666408488 0 1.2866926044808162 0.006870662160032404 1.2866926044808162 0.014600157090068788 C 1.2866926044808162 0.03263564526015361 1.32362241359099 0.05238879897024651 1.32362241359099 0.0867421097704082 L 1.32362241359099 0.5616766315826427 C 1.32362241359099 0.5960299423828043 1.2866926044808162 0.6157830960928973 1.2866926044808162 0.6338185842629821 C 1.2866926044808162 0.6415480791930185 1.2935632666408488 0.6484187413530508 1.3055869254209052 0.6484187413530508 L 1.4567414929416165 0.6484187413530508 C 1.4687651517216729 0.6484187413530508 1.4756358138817052 0.6415480791930185 1.4756358138817052 0.6338185842629821 C 1.4756358138817052 0.6157830960928973 1.4387060047715314 0.5960299423828043 1.4387060047715314 0.5616766315826427 L 1.4387060047715314 0.43113405054202847 L 1.5374717733219962 0.3684392583317335 C 1.5503542648720567 0.36070976340169714 1.553789595952073 0.35383910124166484 1.553789595952073 0.3392389441515961 L 1.553789595952073 0.26022632931122436 C 1.553789595952073 0.25077916884117996 1.5477777665620447 0.24219084114113953 1.5374717733219962 0.24219084114113953 C 1.530601111161964 0.24219084114113953 1.5228716162319276 0.24562617222115568 1.5151421213018912 0.25077916884117996 L 1.4387060047715314 0.2988738039614062 L 1.4387060047715314 0.09447160470044458 L 1.5099891246818669 0.09447160470044458 M 1.8407007149052772 0.0867421097704082 C 1.8407007149052772 0.05238879897024651 1.877630524015451 0.03263564526015361 1.877630524015451 0.014600157090068788 C 1.877630524015451 0.006870662160032404 1.8707598618554186 0 1.8587362030753622 0 L 1.707581635554651 0 C 1.6955579767745945 0 1.688687314614562 0.006870662160032404 1.688687314614562 0.014600157090068788 C 1.688687314614562 0.03263564526015361 1.7256171237247357 0.05238879897024651 1.7256171237247357 0.0867421097704082 L 1.7256171237247357 0.5616766315826427 C 1.7256171237247357 0.5960299423828043 1.688687314614562 0.6157830960928973 1.688687314614562 0.6338185842629821 C 1.688687314614562 0.6415480791930185 1.6955579767745945 0.6484187413530508 1.707581635554651 0.6484187413530508 L 1.8587362030753622 0.6484187413530508 C 1.8707598618554186 0.6484187413530508 1.877630524015451 0.6415480791930185 1.877630524015451 0.6338185842629821 C 1.877630524015451 0.6157830960928973 1.8407007149052772 0.5960299423828043 1.8407007149052772 0.5616766315826427 M 2.2607212681145232 0.6484187413530508 C 2.28133325459462 0.6484187413530508 2.2899215822946606 0.6398304136530104 2.2899215822946606 0.6192184271729134 L 2.2899215822946606 0.4380047127020608 C 2.2899215822946606 0.42855755223201636 2.282192087364624 0.421686890071984 2.275321425204592 0.421686890071984 C 2.2650154319645432 0.421686890071984 2.198026475904228 0.4672050268821982 2.1842851515841635 0.47751102012224667 C 2.177414489424131 0.4826640167422709 2.174837991114119 0.4869581805922911 2.174837991114119 0.4998406721423517 L 2.174837991114119 0.5539471366526063 L 2.104413703973788 0.5539471366526063 C 2.098401874583759 0.5539471366526063 2.093248877963735 0.5496529728025861 2.093248877963735 0.5436411434125579 L 2.093248877963735 0.4474518731721052 L 2.1920146465142 0.38475708096181027 C 2.2048971380642604 0.37702758603177394 2.2083324691442767 0.3701569238717416 2.2083324691442767 0.3555567667816729 L 2.2083324691442767 0.27654415194130116 C 2.2083324691442767 0.2670969914712567 2.202320639754248 0.2585086637712163 2.1920146465142 0.2585086637712163 C 2.1851439843541676 0.2585086637712163 2.177414489424131 0.2619439948512325 2.169684994494095 0.2670969914712567 L 2.093248877963735 0.315191626591483 L 2.093248877963735 0.10477759794049302 C 2.093248877963735 0.0996246013204688 2.098401874583759 0.09447160470044458 2.104413703973788 0.09447160470044458 L 2.174837991114119 0.09447160470044458 L 2.174837991114119 0.188943209400889 C 2.174837991114119 0.19839036987093345 2.1825674860441553 0.2052610320309658 2.1894381482041876 0.2052610320309658 C 2.1997441414442362 0.2052610320309658 2.2667330975045514 0.15974289522075164 2.280474421824616 0.14943690198070314 C 2.2873450839846483 0.14428390536067892 2.2899215822946606 0.13998974151065868 2.2899215822946606 0.12710724996059808 L 2.2899215822946606 0.029200314180137465 C 2.2899215822946606 0.008588327700040477 2.28133325459462 0 2.2607212681145232 0 L 1.9601297986131088 0 C 1.9481061398330524 0 1.9412354776730198 0.006870662160032404 1.9412354776730198 0.014600157090068788 C 1.9412354776730198 0.03263564526015361 1.9781652867831936 0.05238879897024651 1.9781652867831936 0.0867421097704082 L 1.9781652867831936 0.5616766315826427 C 1.9781652867831936 0.5960299423828043 1.9412354776730198 0.6157830960928973 1.9412354776730198 0.6338185842629821 C 1.9412354776730198 0.6415480791930185 1.9481061398330524 0.6484187413530508 1.9601297986131088 0.6484187413530508 M 2.522711140067825 0.5539471366526063 L 2.522711140067825 0.09447160470044458 L 2.604300253218209 0.09447160470044458 C 2.611170915378241 0.09447160470044458 2.6163239119982657 0.0996246013204688 2.6163239119982657 0.10649526348050109 L 2.6163239119982657 0.5419234778725497 C 2.6163239119982657 0.5522294711125982 2.6137474136882535 0.5539471366526063 2.604300253218209 0.5539471366526063 M 2.649818390028423 0.6484187413530508 C 2.6961953596086414 0.6484187413530508 2.731407503178807 0.6252302565629417 2.731407503178807 0.5814297852927356 L 2.731407503178807 0.08158911315038397 C 2.731407503178807 0.029200314180137465 2.7013483562286655 0 2.6377947312483667 0 L 2.3895920607171988 0 C 2.3775684019371424 0 2.37069773977711 0.006870662160032404 2.37069773977711 0.014600157090068788 C 2.37069773977711 0.03263564526015361 2.407627548887284 0.05238879897024651 2.407627548887284 0.0867421097704082 L 2.407627548887284 0.5616766315826427 C 2.407627548887284 0.5960299423828043 2.37069773977711 0.6157830960928973 2.37069773977711 0.6338185842629821 C 2.37069773977711 0.6415480791930185 2.3775684019371424 0.6484187413530508 2.3895920607171988 0.6484187413530508" fill="#2d0b67" fill-rule="nonzero"></path></g><g></g></g><defs><clipPath id="SvgjsClipPath1281"><path d=" M -2.7562289647381677 -0.8635666498761714 h 2.5353425371438734 v 2.3755520411053936 h -2.5353425371438734 Z"></path></clipPath><clipPath id="SvgjsClipPath1279af150b3c-60c3-489f-b924-3bf46f433c09"><path d=" M -2.7562289647381677 -0.8635666498761714 L -0.22088642759429433 -0.8635666498761714 L -0.22088642759429433 1.5119853912292223 L -2.7562289647381677 1.5119853912292223 Z"></path></clipPath></defs></svg>